<svg width="120" height="120" viewBox="0 0 120 120" fill="none" xmlns="http://www.w3.org/2000/svg">
<g filter="url(#filter0_bi_12_1317)">
<path fill-rule="evenodd" clip-rule="evenodd" d="M85.7042 91.9302C97.5195 91.9302 107.098 82.352 107.098 70.5367C107.098 58.7214 97.5195 49.1432 85.7042 49.1432C85.6643 49.1432 85.6244 49.1433 85.5845 49.1435C85.555 49.1437 85.5255 49.1439 85.496 49.1442C83.9331 37.2505 73.7571 28.0693 61.4369 28.0693C51.17 28.0693 42.3923 34.445 38.8471 43.4531C38.2928 43.4153 37.7335 43.396 37.1696 43.396C23.7672 43.396 12.9023 54.2609 12.9023 67.6633C12.9023 81.0658 23.7672 91.9306 37.1696 91.9306C37.1776 91.9306 37.1855 91.9306 37.1934 91.9306H85.7041L85.7042 91.9302Z" fill="url(#paint0_linear_12_1317)"/>
</g>
<defs>
<filter id="filter0_bi_12_1317" x="-23.0977" y="-7.93066" width="166.195" height="135.861" filterUnits="userSpaceOnUse" color-interpolation-filters="sRGB">
<feFlood flood-opacity="0" result="BackgroundImageFix"/>
<feGaussianBlur in="BackgroundImageFix" stdDeviation="18"/>
<feComposite in2="SourceAlpha" operator="in" result="effect1_backgroundBlur_12_1317"/>
<feBlend mode="normal" in="SourceGraphic" in2="effect1_backgroundBlur_12_1317" result="shape"/>
<feColorMatrix in="SourceAlpha" type="matrix" values="0 0 0 0 0 0 0 0 0 0 0 0 0 0 0 0 0 0 127 0" result="hardAlpha"/>
<feOffset dy="4.2"/>
<feGaussianBlur stdDeviation="9"/>
<feComposite in2="hardAlpha" operator="arithmetic" k2="-1" k3="1"/>
<feColorMatrix type="matrix" values="0 0 0 0 1 0 0 0 0 1 0 0 0 0 1 0 0 0 0.72 0"/>
<feBlend mode="normal" in2="shape" result="effect2_innerShadow_12_1317"/>
</filter>
<linearGradient id="paint0_linear_12_1317" x1="60" y1="28.0693" x2="60" y2="91.9306" gradientUnits="userSpaceOnUse">
<stop stop-color="white"/>
<stop offset="1" stop-color="white" stop-opacity="0.68"/>
</linearGradient>
</defs>
</svg>
